<mxfile host="Electron" modified="2024-04-09T14:59:43.705Z" agent="Mozilla/5.0 (X11; Linux x86_64) AppleWebKit/537.36 (KHTML, like Gecko) draw.io/24.1.0 Chrome/120.0.6099.109 Electron/28.1.0 Safari/537.36" etag="dmRsGuPW0klt-4-uL3Xk" version="24.1.0" type="device">
  <diagram name="PÃ¡gina-1" id="J00_otYY7heZwr-pO3t4">
    <mxGraphModel dx="786" dy="402" grid="1" gridSize="10" guides="1" tooltips="1" connect="1" arrows="1" fold="1" page="1" pageScale="1" pageWidth="1169" pageHeight="827" math="0" shadow="0">
      <root>
        <mxCell id="0" />
        <mxCell id="1" parent="0" />
        <mxCell id="8w_OfO-8e8WeMJY4tA0E-16" value="interswitch1" style="edgeStyle=orthogonalEdgeStyle;rounded=0;orthogonalLoop=1;jettySize=auto;html=1;exitX=1;exitY=0.5;exitDx=0;exitDy=0;entryX=0;entryY=0.5;entryDx=0;entryDy=0;endArrow=none;endFill=0;strokeWidth=3;fillColor=#f8cecc;strokeColor=#b85450;" edge="1" parent="1" source="8w_OfO-8e8WeMJY4tA0E-1" target="8w_OfO-8e8WeMJY4tA0E-2">
          <mxGeometry relative="1" as="geometry" />
        </mxCell>
        <mxCell id="8w_OfO-8e8WeMJY4tA0E-1" value="switch1" style="ellipse;whiteSpace=wrap;html=1;aspect=fixed;" vertex="1" parent="1">
          <mxGeometry x="410" y="250" width="80" height="80" as="geometry" />
        </mxCell>
        <mxCell id="8w_OfO-8e8WeMJY4tA0E-2" value="switch2" style="ellipse;whiteSpace=wrap;html=1;aspect=fixed;" vertex="1" parent="1">
          <mxGeometry x="600" y="250" width="80" height="80" as="geometry" />
        </mxCell>
        <mxCell id="8w_OfO-8e8WeMJY4tA0E-3" value="switch3" style="ellipse;whiteSpace=wrap;html=1;aspect=fixed;" vertex="1" parent="1">
          <mxGeometry x="505" y="390" width="80" height="80" as="geometry" />
        </mxCell>
        <mxCell id="8w_OfO-8e8WeMJY4tA0E-8" value="nodeswitch1" style="edgeStyle=orthogonalEdgeStyle;rounded=0;orthogonalLoop=1;jettySize=auto;html=1;exitX=1;exitY=0.5;exitDx=0;exitDy=0;entryX=0;entryY=0.5;entryDx=0;entryDy=0;endArrow=none;endFill=0;fillColor=#f8cecc;strokeColor=#b85450;strokeWidth=3;" edge="1" parent="1" source="8w_OfO-8e8WeMJY4tA0E-4" target="8w_OfO-8e8WeMJY4tA0E-1">
          <mxGeometry relative="1" as="geometry" />
        </mxCell>
        <mxCell id="8w_OfO-8e8WeMJY4tA0E-4" value="node1" style="rounded=0;whiteSpace=wrap;html=1;" vertex="1" parent="1">
          <mxGeometry x="210" y="275" width="60" height="30" as="geometry" />
        </mxCell>
        <mxCell id="8w_OfO-8e8WeMJY4tA0E-5" value="node2" style="rounded=0;whiteSpace=wrap;html=1;" vertex="1" parent="1">
          <mxGeometry x="220" y="370" width="60" height="30" as="geometry" />
        </mxCell>
        <mxCell id="8w_OfO-8e8WeMJY4tA0E-6" value="node3" style="rounded=0;whiteSpace=wrap;html=1;" vertex="1" parent="1">
          <mxGeometry x="820" y="260" width="60" height="30" as="geometry" />
        </mxCell>
        <mxCell id="8w_OfO-8e8WeMJY4tA0E-7" value="node4" style="rounded=0;whiteSpace=wrap;html=1;" vertex="1" parent="1">
          <mxGeometry x="770" y="380" width="60" height="30" as="geometry" />
        </mxCell>
        <mxCell id="8w_OfO-8e8WeMJY4tA0E-12" value="nodeswitch2" style="endArrow=none;html=1;rounded=0;exitX=1;exitY=0.5;exitDx=0;exitDy=0;entryX=0;entryY=1;entryDx=0;entryDy=0;strokeWidth=3;fillColor=#e1d5e7;strokeColor=#9673a6;" edge="1" parent="1" source="8w_OfO-8e8WeMJY4tA0E-5" target="8w_OfO-8e8WeMJY4tA0E-1">
          <mxGeometry width="50" height="50" relative="1" as="geometry">
            <mxPoint x="430" y="320" as="sourcePoint" />
            <mxPoint x="480" y="270" as="targetPoint" />
          </mxGeometry>
        </mxCell>
        <mxCell id="8w_OfO-8e8WeMJY4tA0E-13" value="nodeswitch4" style="endArrow=none;html=1;rounded=0;exitX=0;exitY=0.5;exitDx=0;exitDy=0;entryX=0.763;entryY=0.963;entryDx=0;entryDy=0;entryPerimeter=0;fillColor=#e1d5e7;strokeColor=#9673a6;strokeWidth=3;" edge="1" parent="1" source="8w_OfO-8e8WeMJY4tA0E-7" target="8w_OfO-8e8WeMJY4tA0E-2">
          <mxGeometry width="50" height="50" relative="1" as="geometry">
            <mxPoint x="430" y="320" as="sourcePoint" />
            <mxPoint x="480" y="270" as="targetPoint" />
          </mxGeometry>
        </mxCell>
        <mxCell id="8w_OfO-8e8WeMJY4tA0E-15" value="nodeswitch3" style="endArrow=none;html=1;rounded=0;entryX=0;entryY=0.5;entryDx=0;entryDy=0;strokeWidth=3;fillColor=#f8cecc;strokeColor=#b85450;" edge="1" parent="1" target="8w_OfO-8e8WeMJY4tA0E-6">
          <mxGeometry width="50" height="50" relative="1" as="geometry">
            <mxPoint x="680" y="290" as="sourcePoint" />
            <mxPoint x="480" y="270" as="targetPoint" />
          </mxGeometry>
        </mxCell>
        <mxCell id="8w_OfO-8e8WeMJY4tA0E-18" value="interswitch2" style="endArrow=none;html=1;rounded=0;exitX=0;exitY=0;exitDx=0;exitDy=0;entryX=1;entryY=1;entryDx=0;entryDy=0;strokeWidth=3;fillColor=#e1d5e7;strokeColor=#9673a6;" edge="1" parent="1" source="8w_OfO-8e8WeMJY4tA0E-3" target="8w_OfO-8e8WeMJY4tA0E-1">
          <mxGeometry width="50" height="50" relative="1" as="geometry">
            <mxPoint x="430" y="320" as="sourcePoint" />
            <mxPoint x="480" y="270" as="targetPoint" />
          </mxGeometry>
        </mxCell>
        <mxCell id="8w_OfO-8e8WeMJY4tA0E-19" value="interswitch3" style="endArrow=none;html=1;rounded=0;entryX=0.3;entryY=0.95;entryDx=0;entryDy=0;entryPerimeter=0;exitX=0.75;exitY=0.088;exitDx=0;exitDy=0;exitPerimeter=0;strokeWidth=3;fillColor=#e1d5e7;strokeColor=#9673a6;" edge="1" parent="1" source="8w_OfO-8e8WeMJY4tA0E-3" target="8w_OfO-8e8WeMJY4tA0E-2">
          <mxGeometry width="50" height="50" relative="1" as="geometry">
            <mxPoint x="430" y="320" as="sourcePoint" />
            <mxPoint x="480" y="270" as="targetPoint" />
          </mxGeometry>
        </mxCell>
      </root>
    </mxGraphModel>
  </diagram>
</mxfile>
